<svg width="1105" height="187" viewBox="0 0 1105 187" fill="none" xmlns="http://www.w3.org/2000/svg">
<path d="M83.8888 67.5576L66.1257 41.734C66.0288 41.5627 65.8962 41.4199 65.7392 41.3177C65.5821 41.2156 65.4052 41.157 65.2235 41.1471C65.0308 41.1403 64.8401 41.1912 64.6711 41.2944C64.5022 41.3977 64.3613 41.5495 64.2632 41.734L27.9588 95.2915C27.7086 95.5674 27.5449 95.9254 27.4918 96.3127C27.4658 96.5904 27.494 96.8711 27.5746 97.1355C27.6552 97.3999 27.7863 97.6417 27.9588 97.8446L64.6299 151.082C64.6826 151.196 64.7657 151.289 64.8677 151.348C64.9696 151.408 65.0856 151.431 65.1997 151.414C65.3197 151.4 65.4322 151.342 65.5199 151.25C65.6076 151.157 65.6656 151.036 65.6851 150.903L65.2182 133.047L40.5377 97.8328C40.3611 97.683 40.2179 97.4899 40.1194 97.2685C40.0208 97.0471 39.9696 96.8034 39.9696 96.5563C39.9696 96.3093 40.0208 96.0655 40.1194 95.8441C40.2179 95.6227 40.3611 95.4296 40.5377 95.2798C43.8566 90.3821 63.3266 61.671 64.2816 60.5881C64.3956 60.4347 64.5375 60.3098 64.6981 60.2218C64.8586 60.1338 65.0341 60.0846 65.2129 60.0775C65.3637 60.1011 65.5065 60.1678 65.6271 60.2712C65.7266 60.3552 65.8154 60.454 65.8909 60.5647C65.9938 60.7173 71.0829 67.4314 78.8762 77.7109C80.5453 74.3265 82.2162 70.942 83.8888 67.5576Z" fill="url(#paint0_linear_514_1119)"/>
<path d="M54.6052 65.1163C49.2918 57.3203 43.9776 49.5223 38.6625 41.7224C38.5653 41.5515 38.4326 41.409 38.2756 41.3068C38.1186 41.2047 37.9419 41.146 37.7602 41.1355C37.5674 41.1278 37.3764 41.1783 37.2073 41.2816C37.0382 41.385 36.8974 41.5373 36.7999 41.7224L0.474429 95.2917C0.225392 95.5681 0.0626404 95.926 0.010104 96.3129C-0.0169732 96.5905 0.0105299 96.8712 0.0907069 97.1357C0.170884 97.4002 0.301817 97.6421 0.474429 97.8448L37.1587 151.082C37.2116 151.197 37.2951 151.29 37.3976 151.349C37.5001 151.409 37.6167 151.431 37.7312 151.414C37.8476 151.396 37.9555 151.336 38.0391 151.244C38.1227 151.152 38.1775 151.033 38.1955 150.903L37.7207 133.047C29.493 121.309 21.2653 109.571 13.0376 97.833C12.8767 97.6877 12.7444 97.5073 12.6486 97.3029C12.5529 97.0985 12.4958 96.8744 12.4809 96.6445C12.4786 96.3879 12.5285 96.1341 12.6267 95.9019C12.7249 95.6697 12.8689 95.4651 13.0481 95.3035C16.3696 90.4058 35.8396 61.6946 36.792 60.6118C36.9059 60.4582 37.0478 60.3332 37.2083 60.2452C37.3689 60.1572 37.5444 60.1081 37.7233 60.1012C37.874 60.1253 38.0166 60.192 38.1375 60.2949C38.2364 60.3797 38.3251 60.4783 38.4013 60.5883L49.5003 76.8983C51.2028 72.9641 52.9044 69.0368 54.6052 65.1163Z" fill="url(#paint1_linear_514_1119)"/>
<path d="M37.9618 37.3853C42.8487 37.3853 46.8104 33.0457 46.8104 27.6926C46.8104 22.3395 42.8487 18 37.9618 18C33.0749 18 29.1133 22.3395 29.1133 27.6926C29.1133 33.0457 33.0749 37.3853 37.9618 37.3853Z" fill="#923880"/>
<path d="M91.4404 37.3853C96.3273 37.3853 100.289 33.0457 100.289 27.6926C100.289 22.3395 96.3273 18 91.4404 18C86.5534 18 82.5918 22.3395 82.5918 27.6926C82.5918 33.0457 86.5534 37.3853 91.4404 37.3853Z" fill="#923880"/>
<path d="M64.9736 37.3853C69.8605 37.3853 73.8221 33.0457 73.8221 27.6926C73.8221 22.3395 69.8605 18 64.9736 18C60.0866 18 56.125 22.3395 56.125 27.6926C56.125 33.0457 60.0866 37.3853 64.9736 37.3853Z" fill="#923880"/>
<path d="M111.853 70.2339C104.653 59.7694 99.8304 52.1896 92.6281 41.7223C92.5312 41.551 92.3986 41.4082 92.2415 41.306C92.0844 41.2039 91.9075 41.1453 91.7258 41.1354C91.5332 41.1286 91.3424 41.1795 91.1735 41.2827C91.0046 41.386 90.8637 41.5378 90.7655 41.7223L54.4295 95.2916C54.1793 95.5674 54.0156 95.9254 53.9625 96.3128C53.9365 96.5904 53.9647 96.8711 54.0453 97.1355C54.1259 97.3999 54.257 97.6418 54.4295 97.8446L91.1005 151.082C91.1533 151.196 91.2364 151.289 91.3383 151.348C91.4403 151.408 91.5563 151.431 91.6704 151.414C91.7871 151.395 91.8954 151.336 91.9794 151.244C92.0634 151.152 92.1188 151.033 92.1374 150.903L91.6704 133.047L67.0032 97.8446C66.8374 97.6982 66.7012 97.5146 66.6035 97.3058C66.5057 97.097 66.4486 96.8676 66.436 96.6326C66.4331 96.3759 66.4826 96.1218 66.5809 95.8895C66.6792 95.6572 66.8235 95.4528 67.0032 95.2916C70.322 90.3939 89.792 61.6827 90.747 60.5999C90.861 60.4464 91.0029 60.3216 91.1635 60.2336C91.324 60.1455 91.4995 60.0964 91.6783 60.0893C91.8291 60.1128 91.9719 60.1796 92.0925 60.283C92.192 60.367 92.2808 60.4657 92.3563 60.5764C92.4592 60.729 97.5483 67.4432 105.342 77.7227" fill="url(#paint2_linear_514_1119)"/>
<path d="M176.554 126H133V57.4058H176.554V71.9561H149.822V83.8477H163.406L167.321 98.3013H149.822V111.546H176.554V126ZM309.255 75.5332C307.257 73.6318 305.5 72.2944 303.986 71.521C302.374 70.6831 300.505 70.2642 298.378 70.2642C296.799 70.2642 295.317 70.7637 293.931 71.7627C292.481 72.7617 291.756 74.083 291.756 75.7266C291.756 78.0469 293.335 79.8838 296.493 81.2373C299.716 82.623 303.019 83.9604 306.403 85.2495C309.819 86.603 312.784 88.7461 315.297 91.6787C317.779 94.6436 319.019 98.9941 319.019 104.73C319.019 112.078 316.812 117.718 312.397 121.649C308.014 125.613 302.423 127.595 295.623 127.595C291.691 127.595 287.889 126.918 284.215 125.565C280.509 124.211 277.254 122.181 274.45 119.474L283.538 106.519C286.438 110.193 290.257 112.03 294.995 112.03C296.896 112.03 298.717 111.498 300.457 110.435C302.165 109.403 303.019 107.889 303.019 105.891C303.019 103.538 301.424 101.669 298.233 100.283C296.815 99.6709 295.172 98.978 293.303 98.2046L290.789 97.1895L288.227 96.126C284.779 94.708 281.83 92.5649 279.381 89.6968C276.932 86.8608 275.707 82.623 275.707 76.9834C275.707 72.665 276.77 68.8945 278.897 65.6719C280.96 62.4814 283.715 60.0322 287.163 58.3242C290.515 56.6484 294.108 55.8105 297.943 55.8105C301.488 55.8105 304.969 56.4873 308.385 57.8408C311.865 59.2588 314.911 61.2246 317.521 63.7383L309.255 75.5332ZM410.966 57.4541V102.217C410.966 107.405 409.709 111.917 407.195 115.752C404.682 119.619 401.217 122.552 396.802 124.55C392.355 126.58 387.263 127.595 381.527 127.595C376.145 127.595 371.44 126.725 367.411 124.985C363.351 123.245 360.209 120.57 357.985 116.96C355.729 113.351 354.601 108.839 354.601 103.425V57.4058L371.472 57.4541V98.5913C371.472 101.266 371.778 103.57 372.391 105.504C373.035 107.534 374.131 109.113 375.678 110.241C377.192 111.434 379.287 112.03 381.962 112.03C386.957 112.03 390.244 110.563 391.823 107.631C393.37 104.666 394.143 100.428 394.143 94.9175V57.4058L410.966 57.4541ZM477.872 83.3159L446.548 56.5356V126.048H464.433L464.482 94.144L477.872 107.389L492.277 93.6123V126L510.453 126.048V56.5356L477.872 83.3159ZM577.359 83.3159L546.035 56.5356V126.048H563.921L563.969 94.144L577.359 107.389L591.764 93.6123V126L609.94 126.048V56.5356L577.359 83.3159ZM645.522 57.4541H662.344V126L645.522 125.952V57.4541ZM715.329 73.0195H702.132L697.927 57.4058H744.381L748.442 73.0195H732.151V126H715.329V73.0195Z" fill="url(#paint3_linear_514_1119)"/>
<path d="M209 86H234.833L239 97H213.444L209 86Z" fill="url(#paint4_linear_514_1119)"/>
<path d="M138.55 154.7H147.1V158H135.1V137H138.55V154.7ZM162.032 151.88C162.272 153.02 162.822 153.9 163.682 154.52C164.542 155.12 165.592 155.42 166.832 155.42C168.552 155.42 169.842 154.8 170.702 153.56L173.372 155.12C171.892 157.3 169.702 158.39 166.802 158.39C164.362 158.39 162.392 157.65 160.892 156.17C159.392 154.67 158.642 152.78 158.642 150.5C158.642 148.26 159.382 146.39 160.862 144.89C162.342 143.37 164.242 142.61 166.562 142.61C168.762 142.61 170.562 143.38 171.962 144.92C173.382 146.46 174.092 148.33 174.092 150.53C174.092 150.87 174.052 151.32 173.972 151.88H162.032ZM162.002 149.24H170.822C170.602 148.02 170.092 147.1 169.292 146.48C168.512 145.86 167.592 145.55 166.532 145.55C165.332 145.55 164.332 145.88 163.532 146.54C162.732 147.2 162.222 148.1 162.002 149.24ZM199.235 143H202.475V158H199.235V155.84C198.015 157.54 196.265 158.39 193.985 158.39C191.925 158.39 190.165 157.63 188.705 156.11C187.245 154.57 186.515 152.7 186.515 150.5C186.515 148.28 187.245 146.41 188.705 144.89C190.165 143.37 191.925 142.61 193.985 142.61C196.265 142.61 198.015 143.45 199.235 145.13V143ZM191.105 153.95C192.005 154.85 193.135 155.3 194.495 155.3C195.855 155.3 196.985 154.85 197.885 153.95C198.785 153.03 199.235 151.88 199.235 150.5C199.235 149.12 198.785 147.98 197.885 147.08C196.985 146.16 195.855 145.7 194.495 145.7C193.135 145.7 192.005 146.16 191.105 147.08C190.205 147.98 189.755 149.12 189.755 150.5C189.755 151.88 190.205 153.03 191.105 153.95ZM224.641 142.61C226.361 142.61 227.751 143.16 228.811 144.26C229.871 145.36 230.401 146.87 230.401 148.79V158H227.161V149.12C227.161 148 226.861 147.14 226.261 146.54C225.661 145.94 224.841 145.64 223.801 145.64C222.661 145.64 221.741 146 221.041 146.72C220.341 147.42 219.991 148.5 219.991 149.96V158H216.751V143H219.991V144.92C220.971 143.38 222.521 142.61 224.641 142.61ZM247.45 140.15C247.05 140.55 246.57 140.75 246.01 140.75C245.45 140.75 244.96 140.55 244.54 140.15C244.14 139.73 243.94 139.24 243.94 138.68C243.94 138.12 244.14 137.64 244.54 137.24C244.94 136.82 245.43 136.61 246.01 136.61C246.59 136.61 247.08 136.82 247.48 137.24C247.88 137.64 248.08 138.12 248.08 138.68C248.08 139.24 247.87 139.73 247.45 140.15ZM244.39 158V143H247.63V158H244.39ZM269.782 142.61C271.502 142.61 272.892 143.16 273.952 144.26C275.012 145.36 275.542 146.87 275.542 148.79V158H272.302V149.12C272.302 148 272.002 147.14 271.402 146.54C270.802 145.94 269.982 145.64 268.942 145.64C267.802 145.64 266.882 146 266.182 146.72C265.482 147.42 265.132 148.5 265.132 149.96V158H261.892V143H265.132V144.92C266.112 143.38 267.662 142.61 269.782 142.61ZM301.471 143H304.651V157.31C304.651 159.59 303.901 161.34 302.401 162.56C300.901 163.78 299.081 164.39 296.941 164.39C293.481 164.39 291.111 163.18 289.831 160.76L292.621 159.14C293.401 160.68 294.861 161.45 297.001 161.45C298.401 161.45 299.491 161.08 300.271 160.34C301.071 159.62 301.471 158.61 301.471 157.31V155.48C300.251 157.22 298.511 158.09 296.251 158.09C294.131 158.09 292.341 157.34 290.881 155.84C289.421 154.32 288.691 152.49 288.691 150.35C288.691 148.21 289.421 146.39 290.881 144.89C292.341 143.37 294.131 142.61 296.251 142.61C298.511 142.61 300.251 143.48 301.471 145.22V143ZM293.281 153.71C294.201 154.61 295.341 155.06 296.701 155.06C298.061 155.06 299.191 154.61 300.091 153.71C301.011 152.81 301.471 151.69 301.471 150.35C301.471 149.01 301.011 147.89 300.091 146.99C299.191 146.09 298.061 145.64 296.701 145.64C295.341 145.64 294.201 146.09 293.281 146.99C292.381 147.89 291.931 149.01 291.931 150.35C291.931 151.69 292.381 152.81 293.281 153.71ZM348.807 143H352.047V158H348.807V155.84C347.587 157.54 345.837 158.39 343.557 158.39C341.497 158.39 339.737 157.63 338.277 156.11C336.817 154.57 336.087 152.7 336.087 150.5C336.087 148.28 336.817 146.41 338.277 144.89C339.737 143.37 341.497 142.61 343.557 142.61C345.837 142.61 347.587 143.45 348.807 145.13V143ZM340.677 153.95C341.577 154.85 342.707 155.3 344.067 155.3C345.427 155.3 346.557 154.85 347.457 153.95C348.357 153.03 348.807 151.88 348.807 150.5C348.807 149.12 348.357 147.98 347.457 147.08C346.557 146.16 345.427 145.7 344.067 145.7C342.707 145.7 341.577 146.16 340.677 147.08C339.777 147.98 339.327 149.12 339.327 150.5C339.327 151.88 339.777 153.03 340.677 153.95ZM373.404 158.39C371.144 158.39 369.254 157.63 367.734 156.11C366.234 154.59 365.484 152.72 365.484 150.5C365.484 148.26 366.234 146.39 367.734 144.89C369.254 143.37 371.144 142.61 373.404 142.61C374.864 142.61 376.194 142.96 377.394 143.66C378.594 144.36 379.494 145.3 380.094 146.48L377.304 148.1C376.964 147.38 376.444 146.82 375.744 146.42C375.064 146 374.274 145.79 373.374 145.79C372.054 145.79 370.944 146.24 370.044 147.14C369.164 148.04 368.724 149.16 368.724 150.5C368.724 151.84 369.164 152.96 370.044 153.86C370.944 154.76 372.054 155.21 373.374 155.21C374.254 155.21 375.044 155 375.744 154.58C376.464 154.16 377.004 153.6 377.364 152.9L380.154 154.49C379.514 155.69 378.594 156.64 377.394 157.34C376.194 158.04 374.864 158.39 373.404 158.39ZM396.323 145.52C397.143 143.66 398.683 142.73 400.943 142.73V146.24C399.703 146.16 398.623 146.46 397.703 147.14C396.783 147.8 396.323 148.9 396.323 150.44V158H393.083V143H396.323V145.52ZM420.214 158.39C418.014 158.39 416.144 157.63 414.604 156.11C413.064 154.59 412.294 152.72 412.294 150.5C412.294 148.28 413.064 146.41 414.604 144.89C416.144 143.37 418.014 142.61 420.214 142.61C422.434 142.61 424.304 143.37 425.824 144.89C427.364 146.41 428.134 148.28 428.134 150.5C428.134 152.72 427.364 154.59 425.824 156.11C424.304 157.63 422.434 158.39 420.214 158.39ZM416.884 153.89C417.784 154.79 418.894 155.24 420.214 155.24C421.534 155.24 422.644 154.79 423.544 153.89C424.444 152.99 424.894 151.86 424.894 150.5C424.894 149.14 424.444 148.01 423.544 147.11C422.644 146.21 421.534 145.76 420.214 145.76C418.894 145.76 417.784 146.21 416.884 147.11C415.984 148.01 415.534 149.14 415.534 150.5C415.534 151.86 415.984 152.99 416.884 153.89ZM444.181 147.14C444.181 147.64 444.451 148.04 444.991 148.34C445.551 148.62 446.221 148.87 447.001 149.09C447.801 149.29 448.601 149.53 449.401 149.81C450.201 150.09 450.871 150.57 451.411 151.25C451.971 151.91 452.251 152.75 452.251 153.77C452.251 155.21 451.691 156.34 450.571 157.16C449.471 157.98 448.081 158.39 446.401 158.39C444.921 158.39 443.651 158.08 442.591 157.46C441.531 156.84 440.761 155.98 440.281 154.88L443.071 153.26C443.591 154.7 444.701 155.42 446.401 155.42C448.101 155.42 448.951 154.86 448.951 153.74C448.951 153.26 448.671 152.87 448.111 152.57C447.571 152.27 446.901 152.02 446.101 151.82C445.321 151.6 444.531 151.35 443.731 151.07C442.931 150.79 442.251 150.33 441.691 149.69C441.151 149.03 440.881 148.2 440.881 147.2C440.881 145.82 441.401 144.71 442.441 143.87C443.501 143.03 444.811 142.61 446.371 142.61C447.611 142.61 448.711 142.89 449.671 143.45C450.651 143.99 451.401 144.75 451.921 145.73L449.191 147.26C448.671 146.12 447.731 145.55 446.371 145.55C445.751 145.55 445.231 145.69 444.811 145.97C444.391 146.23 444.181 146.62 444.181 147.14ZM467.601 147.14C467.601 147.64 467.871 148.04 468.411 148.34C468.971 148.62 469.641 148.87 470.421 149.09C471.221 149.29 472.021 149.53 472.821 149.81C473.621 150.09 474.291 150.57 474.831 151.25C475.391 151.91 475.671 152.75 475.671 153.77C475.671 155.21 475.111 156.34 473.991 157.16C472.891 157.98 471.501 158.39 469.821 158.39C468.341 158.39 467.071 158.08 466.011 157.46C464.951 156.84 464.181 155.98 463.701 154.88L466.491 153.26C467.011 154.7 468.121 155.42 469.821 155.42C471.521 155.42 472.371 154.86 472.371 153.74C472.371 153.26 472.091 152.87 471.531 152.57C470.991 152.27 470.321 152.02 469.521 151.82C468.741 151.6 467.951 151.35 467.151 151.07C466.351 150.79 465.671 150.33 465.111 149.69C464.571 149.03 464.301 148.2 464.301 147.2C464.301 145.82 464.821 144.71 465.861 143.87C466.921 143.03 468.231 142.61 469.791 142.61C471.031 142.61 472.131 142.89 473.091 143.45C474.071 143.99 474.821 144.75 475.341 145.73L472.611 147.26C472.091 146.12 471.151 145.55 469.791 145.55C469.171 145.55 468.651 145.69 468.231 145.97C467.811 146.23 467.601 146.62 467.601 147.14ZM514.969 137C516.949 137 518.599 137.66 519.919 138.98C521.259 140.3 521.929 141.94 521.929 143.9C521.929 145.84 521.259 147.48 519.919 148.82C518.599 150.14 516.949 150.8 514.969 150.8H510.679V158H507.229V137H514.969ZM514.969 147.56C515.989 147.56 516.829 147.22 517.489 146.54C518.149 145.84 518.479 144.96 518.479 143.9C518.479 142.84 518.149 141.97 517.489 141.29C516.829 140.59 515.989 140.24 514.969 140.24H510.679V147.56H514.969ZM546.04 143H549.28V158H546.04V155.84C544.82 157.54 543.07 158.39 540.79 158.39C538.73 158.39 536.97 157.63 535.51 156.11C534.05 154.57 533.32 152.7 533.32 150.5C533.32 148.28 534.05 146.41 535.51 144.89C536.97 143.37 538.73 142.61 540.79 142.61C543.07 142.61 544.82 143.45 546.04 145.13V143ZM537.91 153.95C538.81 154.85 539.94 155.3 541.3 155.3C542.66 155.3 543.79 154.85 544.69 153.95C545.59 153.03 546.04 151.88 546.04 150.5C546.04 149.12 545.59 147.98 544.69 147.08C543.79 146.16 542.66 145.7 541.3 145.7C539.94 145.7 538.81 146.16 537.91 147.08C537.01 147.98 536.56 149.12 536.56 150.5C536.56 151.88 537.01 153.03 537.91 153.95ZM566.796 145.52C567.616 143.66 569.156 142.73 571.416 142.73V146.24C570.176 146.16 569.096 146.46 568.176 147.14C567.256 147.8 566.796 148.9 566.796 150.44V158H563.556V143H566.796V145.52ZM595.487 143H598.727V158H595.487V155.84C594.267 157.54 592.517 158.39 590.237 158.39C588.177 158.39 586.417 157.63 584.957 156.11C583.497 154.57 582.767 152.7 582.767 150.5C582.767 148.28 583.497 146.41 584.957 144.89C586.417 143.37 588.177 142.61 590.237 142.61C592.517 142.61 594.267 143.45 595.487 145.13V143ZM587.357 153.95C588.257 154.85 589.387 155.3 590.747 155.3C592.107 155.3 593.237 154.85 594.137 153.95C595.037 153.03 595.487 151.88 595.487 150.5C595.487 149.12 595.037 147.98 594.137 147.08C593.237 146.16 592.107 145.7 590.747 145.7C589.387 145.7 588.257 146.16 587.357 147.08C586.457 147.98 586.007 149.12 586.007 150.5C586.007 151.88 586.457 153.03 587.357 153.95ZM624.883 137H628.123V158H624.883V155.84C623.663 157.54 621.913 158.39 619.633 158.39C617.573 158.39 615.813 157.63 614.353 156.11C612.893 154.57 612.163 152.7 612.163 150.5C612.163 148.28 612.893 146.41 614.353 144.89C615.813 143.37 617.573 142.61 619.633 142.61C621.913 142.61 623.663 143.45 624.883 145.13V137ZM616.753 153.95C617.653 154.85 618.783 155.3 620.143 155.3C621.503 155.3 622.633 154.85 623.533 153.95C624.433 153.03 624.883 151.88 624.883 150.5C624.883 149.12 624.433 147.98 623.533 147.08C622.633 146.16 621.503 145.7 620.143 145.7C618.783 145.7 617.653 146.16 616.753 147.08C615.853 147.98 615.403 149.12 615.403 150.5C615.403 151.88 615.853 153.03 616.753 153.95ZM645.46 140.15C645.06 140.55 644.58 140.75 644.02 140.75C643.46 140.75 642.97 140.55 642.55 140.15C642.15 139.73 641.95 139.24 641.95 138.68C641.95 138.12 642.15 137.64 642.55 137.24C642.95 136.82 643.44 136.61 644.02 136.61C644.6 136.61 645.09 136.82 645.49 137.24C645.89 137.64 646.09 138.12 646.09 138.68C646.09 139.24 645.88 139.73 645.46 140.15ZM642.4 158V143H645.64V158H642.4ZM671.842 143H675.022V157.31C675.022 159.59 674.272 161.34 672.772 162.56C671.272 163.78 669.452 164.39 667.312 164.39C663.852 164.39 661.482 163.18 660.202 160.76L662.992 159.14C663.772 160.68 665.232 161.45 667.372 161.45C668.772 161.45 669.862 161.08 670.642 160.34C671.442 159.62 671.842 158.61 671.842 157.31V155.48C670.622 157.22 668.882 158.09 666.622 158.09C664.502 158.09 662.712 157.34 661.252 155.84C659.792 154.32 659.062 152.49 659.062 150.35C659.062 148.21 659.792 146.39 661.252 144.89C662.712 143.37 664.502 142.61 666.622 142.61C668.882 142.61 670.622 143.48 671.842 145.22V143ZM663.652 153.71C664.572 154.61 665.712 155.06 667.072 155.06C668.432 155.06 669.562 154.61 670.462 153.71C671.382 152.81 671.842 151.69 671.842 150.35C671.842 149.01 671.382 147.89 670.462 146.99C669.562 146.09 668.432 145.64 667.072 145.64C665.712 145.64 664.572 146.09 663.652 146.99C662.752 147.89 662.302 149.01 662.302 150.35C662.302 151.69 662.752 152.81 663.652 153.71ZM705.678 142.61C707.378 142.61 708.748 143.16 709.788 144.26C710.828 145.36 711.348 146.84 711.348 148.7V158H708.108V148.91C708.108 147.87 707.848 147.07 707.328 146.51C706.808 145.93 706.098 145.64 705.198 145.64C704.198 145.64 703.398 145.97 702.798 146.63C702.218 147.29 701.928 148.28 701.928 149.6V158H698.688V148.91C698.688 147.87 698.438 147.07 697.938 146.51C697.458 145.93 696.768 145.64 695.868 145.64C694.888 145.64 694.088 145.98 693.468 146.66C692.848 147.32 692.538 148.3 692.538 149.6V158H689.298V143H692.538V144.8C693.498 143.34 694.928 142.61 696.828 142.61C698.748 142.61 700.168 143.4 701.088 144.98C702.088 143.4 703.618 142.61 705.678 142.61ZM728.226 147.14C728.226 147.64 728.496 148.04 729.036 148.34C729.596 148.62 730.266 148.87 731.046 149.09C731.846 149.29 732.646 149.53 733.446 149.81C734.246 150.09 734.916 150.57 735.456 151.25C736.016 151.91 736.296 152.75 736.296 153.77C736.296 155.21 735.736 156.34 734.616 157.16C733.516 157.98 732.126 158.39 730.446 158.39C728.966 158.39 727.696 158.08 726.636 157.46C725.576 156.84 724.806 155.98 724.326 154.88L727.116 153.26C727.636 154.7 728.746 155.42 730.446 155.42C732.146 155.42 732.996 154.86 732.996 153.74C732.996 153.26 732.716 152.87 732.156 152.57C731.616 152.27 730.946 152.02 730.146 151.82C729.366 151.6 728.576 151.35 727.776 151.07C726.976 150.79 726.296 150.33 725.736 149.69C725.196 149.03 724.926 148.2 724.926 147.2C724.926 145.82 725.446 144.71 726.486 143.87C727.546 143.03 728.856 142.61 730.416 142.61C731.656 142.61 732.756 142.89 733.716 143.45C734.696 143.99 735.446 144.75 735.966 145.73L733.236 147.26C732.716 146.12 731.776 145.55 730.416 145.55C729.796 145.55 729.276 145.69 728.856 145.97C728.436 146.23 728.226 146.62 728.226 147.14Z" fill="#470139"/>
<path d="M135.1 24H138.55V45H135.1V24ZM146.046 24H149.496V45H146.046V24ZM156.993 24H160.443V45H156.993V24ZM181.589 24V27.3H175.679V45H172.229V27.3H166.289V24H181.589ZM211.921 45L210.451 40.77H201.511L200.041 45H196.291L203.911 24H208.051L215.641 45H211.921ZM202.651 37.53H209.311L205.981 28.05L202.651 37.53ZM220.989 45V23.1H224.229V45H220.989ZM231.291 45V23.1H234.531V45H231.291ZM253.473 30H256.713V45H253.473V42.84C252.253 44.54 250.503 45.39 248.223 45.39C246.163 45.39 244.403 44.63 242.943 43.11C241.483 41.57 240.753 39.7 240.753 37.5C240.753 35.28 241.483 33.41 242.943 31.89C244.403 30.37 246.163 29.61 248.223 29.61C250.503 29.61 252.253 30.45 253.473 32.13V30ZM245.343 40.95C246.243 41.85 247.373 42.3 248.733 42.3C250.093 42.3 251.223 41.85 252.123 40.95C253.023 40.03 253.473 38.88 253.473 37.5C253.473 36.12 253.023 34.98 252.123 34.08C251.223 33.16 250.093 32.7 248.733 32.7C247.373 32.7 246.243 33.16 245.343 34.08C244.443 34.98 243.993 36.12 243.993 37.5C243.993 38.88 244.443 40.03 245.343 40.95ZM271.679 29.61C273.399 29.61 274.789 30.16 275.849 31.26C276.909 32.36 277.439 33.87 277.439 35.79V45H274.199V36.12C274.199 35 273.899 34.14 273.299 33.54C272.699 32.94 271.879 32.64 270.839 32.64C269.699 32.64 268.779 33 268.079 33.72C267.379 34.42 267.029 35.5 267.029 36.96V45H263.789V24H267.029V31.92C268.009 30.38 269.559 29.61 271.679 29.61ZM296.108 30H299.348V45H296.108V42.84C294.888 44.54 293.138 45.39 290.858 45.39C288.798 45.39 287.038 44.63 285.578 43.11C284.118 41.57 283.388 39.7 283.388 37.5C283.388 35.28 284.118 33.41 285.578 31.89C287.038 30.37 288.798 29.61 290.858 29.61C293.138 29.61 294.888 30.45 296.108 32.13V30ZM287.978 40.95C288.878 41.85 290.008 42.3 291.368 42.3C292.728 42.3 293.858 41.85 294.758 40.95C295.658 40.03 296.108 38.88 296.108 37.5C296.108 36.12 295.658 34.98 294.758 34.08C293.858 33.16 292.728 32.7 291.368 32.7C290.008 32.7 288.878 33.16 287.978 34.08C287.078 34.98 286.628 36.12 286.628 37.5C286.628 38.88 287.078 40.03 287.978 40.95ZM314.914 29.61C316.974 29.61 318.734 30.37 320.194 31.89C321.654 33.41 322.384 35.28 322.384 37.5C322.384 39.7 321.654 41.57 320.194 43.11C318.734 44.63 316.974 45.39 314.914 45.39C312.634 45.39 310.884 44.54 309.664 42.84V45H306.424V24H309.664V32.13C310.884 30.45 312.634 29.61 314.914 29.61ZM311.014 40.95C311.914 41.85 313.044 42.3 314.404 42.3C315.764 42.3 316.894 41.85 317.794 40.95C318.694 40.03 319.144 38.88 319.144 37.5C319.144 36.12 318.694 34.98 317.794 34.08C316.894 33.16 315.764 32.7 314.404 32.7C313.044 32.7 311.914 33.16 311.014 34.08C310.114 34.98 309.664 36.12 309.664 37.5C309.664 38.88 310.114 40.03 311.014 40.95ZM340.501 30H343.741V45H340.501V42.84C339.281 44.54 337.531 45.39 335.251 45.39C333.191 45.39 331.431 44.63 329.971 43.11C328.511 41.57 327.781 39.7 327.781 37.5C327.781 35.28 328.511 33.41 329.971 31.89C331.431 30.37 333.191 29.61 335.251 29.61C337.531 29.61 339.281 30.45 340.501 32.13V30ZM332.371 40.95C333.271 41.85 334.401 42.3 335.761 42.3C337.121 42.3 338.251 41.85 339.151 40.95C340.051 40.03 340.501 38.88 340.501 37.5C340.501 36.12 340.051 34.98 339.151 34.08C338.251 33.16 337.121 32.7 335.761 32.7C334.401 32.7 333.271 33.16 332.371 34.08C331.471 34.98 331.021 36.12 331.021 37.5C331.021 38.88 331.471 40.03 332.371 40.95ZM362.697 24H365.937V45H362.697V42.84C361.477 44.54 359.727 45.39 357.447 45.39C355.387 45.39 353.627 44.63 352.167 43.11C350.707 41.57 349.977 39.7 349.977 37.5C349.977 35.28 350.707 33.41 352.167 31.89C353.627 30.37 355.387 29.61 357.447 29.61C359.727 29.61 361.477 30.45 362.697 32.13V24ZM354.567 40.95C355.467 41.85 356.597 42.3 357.957 42.3C359.317 42.3 360.447 41.85 361.347 40.95C362.247 40.03 362.697 38.88 362.697 37.5C362.697 36.12 362.247 34.98 361.347 34.08C360.447 33.16 359.317 32.7 357.957 32.7C356.597 32.7 355.467 33.16 354.567 34.08C353.667 34.98 353.217 36.12 353.217 37.5C353.217 38.88 353.667 40.03 354.567 40.95ZM377.514 24L375.414 31.8H372.714L373.914 24H377.514ZM384.761 34.14C384.761 34.64 385.031 35.04 385.571 35.34C386.131 35.62 386.801 35.87 387.581 36.09C388.381 36.29 389.181 36.53 389.981 36.81C390.781 37.09 391.451 37.57 391.991 38.25C392.551 38.91 392.831 39.75 392.831 40.77C392.831 42.21 392.271 43.34 391.151 44.16C390.051 44.98 388.661 45.39 386.981 45.39C385.501 45.39 384.231 45.08 383.171 44.46C382.111 43.84 381.341 42.98 380.861 41.88L383.651 40.26C384.171 41.7 385.281 42.42 386.981 42.42C388.681 42.42 389.531 41.86 389.531 40.74C389.531 40.26 389.251 39.87 388.691 39.57C388.151 39.27 387.481 39.02 386.681 38.82C385.901 38.6 385.111 38.35 384.311 38.07C383.511 37.79 382.831 37.33 382.271 36.69C381.731 36.03 381.461 35.2 381.461 34.2C381.461 32.82 381.981 31.71 383.021 30.87C384.081 30.03 385.391 29.61 386.951 29.61C388.191 29.61 389.291 29.89 390.251 30.45C391.231 30.99 391.981 31.75 392.501 32.73L389.771 34.26C389.251 33.12 388.311 32.55 386.951 32.55C386.331 32.55 385.811 32.69 385.391 32.97C384.971 33.23 384.761 33.62 384.761 34.14ZM597.399 24H600.399V45H596.949V27.69L592.719 28.89L591.879 25.95L597.399 24ZM615.971 32.58C617.491 32.94 618.721 33.65 619.661 34.71C620.621 35.75 621.101 37.06 621.101 38.64C621.101 40.74 620.391 42.39 618.971 43.59C617.551 44.79 615.811 45.39 613.751 45.39C612.151 45.39 610.711 45.02 609.431 44.28C608.171 43.54 607.261 42.46 606.701 41.04L609.641 39.33C610.261 41.13 611.631 42.03 613.751 42.03C614.951 42.03 615.901 41.73 616.601 41.13C617.301 40.51 617.651 39.68 617.651 38.64C617.651 37.6 617.301 36.78 616.601 36.18C615.901 35.58 614.951 35.28 613.751 35.28H612.971L611.591 33.21L616.121 27.24H607.331V24H620.231V26.94L615.971 32.58ZM627.552 37.44V34.32H638.652V37.44H627.552ZM649.955 24H652.955V45H649.505V27.69L645.275 28.89L644.435 25.95L649.955 24ZM666.757 31.92C668.757 31.92 670.447 32.52 671.827 33.72C673.207 34.9 673.897 36.54 673.897 38.64C673.897 40.74 673.187 42.39 671.767 43.59C670.347 44.79 668.607 45.39 666.547 45.39C664.887 45.39 663.417 45.01 662.137 44.25C660.857 43.47 659.947 42.35 659.407 40.89L662.377 39.18C662.937 41.08 664.327 42.03 666.547 42.03C667.727 42.03 668.667 41.73 669.367 41.13C670.087 40.51 670.447 39.68 670.447 38.64C670.447 37.6 670.097 36.78 669.397 36.18C668.697 35.58 667.767 35.28 666.607 35.28H660.487L661.297 24H672.997V27.24H664.477L664.117 31.92H666.757ZM711.155 24V45H707.705V30.03L701.315 40.59H700.895L694.505 30V45H691.055V24H694.775L701.105 34.5L707.465 24H711.155ZM730.312 30H733.552V45H730.312V42.84C729.092 44.54 727.342 45.39 725.062 45.39C723.002 45.39 721.242 44.63 719.782 43.11C718.322 41.57 717.592 39.7 717.592 37.5C717.592 35.28 718.322 33.41 719.782 31.89C721.242 30.37 723.002 29.61 725.062 29.61C727.342 29.61 729.092 30.45 730.312 32.13V30ZM722.182 40.95C723.082 41.85 724.212 42.3 725.572 42.3C726.932 42.3 728.062 41.85 728.962 40.95C729.862 40.03 730.312 38.88 730.312 37.5C730.312 36.12 729.862 34.98 728.962 34.08C728.062 33.16 726.932 32.7 725.572 32.7C724.212 32.7 723.082 33.16 722.182 34.08C721.282 34.98 720.832 36.12 720.832 37.5C720.832 38.88 721.282 40.03 722.182 40.95ZM750.739 30H754.189L748.429 45.48C746.989 49.36 744.549 51.2 741.109 51V47.97C742.129 48.03 742.949 47.81 743.569 47.31C744.189 46.83 744.699 46.07 745.099 45.03L745.249 44.73L738.889 30H742.429L746.899 40.89L750.739 30Z" fill="#507EA9"/>
<path d="M765.254 71.588L768.704 58.8H773.534L771.694 71.588H765.254ZM789.465 91V86.262L800.459 74.946C802.912 72.37 804.139 70.2233 804.139 68.506C804.139 67.2487 803.74 66.2367 802.943 65.47C802.176 64.7033 801.179 64.32 799.953 64.32C797.53 64.32 795.736 65.5773 794.571 68.092L789.235 64.964C790.247 62.756 791.703 61.0693 793.605 59.904C795.506 58.7387 797.591 58.156 799.861 58.156C802.774 58.156 805.273 59.076 807.359 60.916C809.444 62.7253 810.487 65.1787 810.487 68.276C810.487 71.6187 808.723 75.0533 805.197 78.58L798.895 84.882H810.993V91H789.465ZM814.362 91V86.262L825.356 74.946C827.81 72.37 829.036 70.2233 829.036 68.506C829.036 67.2487 828.638 66.2367 827.84 65.47C827.074 64.7033 826.077 64.32 824.85 64.32C822.428 64.32 820.634 65.5773 819.468 68.092L814.132 64.964C815.144 62.756 816.601 61.0693 818.502 59.904C820.404 58.7387 822.489 58.156 824.758 58.156C827.672 58.156 830.171 59.076 832.256 60.916C834.342 62.7253 835.384 65.1787 835.384 68.276C835.384 71.6187 833.621 75.0533 830.094 78.58L823.792 84.882H835.89V91H814.362Z" fill="url(#paint5_linear_514_1119)"/>
<defs>
<linearGradient id="paint0_linear_514_1119" x1="55.6856" y1="41.1465" x2="55.6856" y2="151.419" gradientUnits="userSpaceOnUse">
<stop stop-color="#1E4855"/>
<stop offset="1"/>
</linearGradient>
<linearGradient id="paint1_linear_514_1119" x1="27.3026" y1="41.1348" x2="27.3026" y2="151.42" gradientUnits="userSpaceOnUse">
<stop stop-color="#1E4855"/>
<stop offset="1"/>
</linearGradient>
<linearGradient id="paint2_linear_514_1119" x1="82.9029" y1="41.1348" x2="82.9029" y2="151.419" gradientUnits="userSpaceOnUse">
<stop stop-color="#1E4855"/>
<stop offset="1"/>
</linearGradient>
<linearGradient id="paint3_linear_514_1119" x1="808.5" y1="0" x2="808.5" y2="187" gradientUnits="userSpaceOnUse">
<stop stop-color="#507EA9"/>
<stop offset="1" stop-color="#470139"/>
</linearGradient>
<linearGradient id="paint4_linear_514_1119" x1="224" y1="86" x2="224" y2="97" gradientUnits="userSpaceOnUse">
<stop stop-color="#507EA9"/>
<stop offset="1" stop-color="#470139"/>
</linearGradient>
<linearGradient id="paint5_linear_514_1119" x1="800.5" y1="50" x2="800.5" y2="107" gradientUnits="userSpaceOnUse">
<stop stop-color="#507EA9"/>
<stop offset="1" stop-color="#470139"/>
</linearGradient>
</defs>
</svg>
